<mxfile host="app.diagrams.net" modified="2021-08-12T02:55:08.106Z" agent="5.0 (Macintosh; Intel Mac OS X 10_15_7) AppleWebKit/537.36 (KHTML, like Gecko) Chrome/92.0.4515.107 Safari/537.36" etag="idjF2guCsMx0fVIDCiPZ" version="14.9.5" type="github" pages="2">
  <diagram name="Portal Page" id="c7558073-3199-34d8-9f00-42111426c3f3">
    <mxGraphModel dx="2013" dy="505" grid="1" gridSize="10" guides="1" tooltips="1" connect="1" arrows="1" fold="1" page="1" pageScale="1" pageWidth="826" pageHeight="1169" background="none" math="0" shadow="0">
      <root>
        <mxCell id="0" />
        <mxCell id="1" parent="0" />
        <mxCell id="52" value="Display available &#xa;templates" style="text;spacingTop=-5;align=center;fillColor=#FF0000;" parent="1" vertex="1">
          <mxGeometry x="-580" y="251" width="100" height="30" as="geometry" />
        </mxCell>
        <mxCell id="nVRuVsThQJJAnQxjmGm0-97" value="&lt;p style=&quot;margin: 0px ; margin-top: 4px ; text-align: center ; text-decoration: underline&quot;&gt;&lt;strong&gt;Lists&lt;br&gt;&lt;/strong&gt;&lt;/p&gt;&lt;hr&gt;&lt;p style=&quot;margin: 0px ; margin-left: 8px&quot;&gt;&lt;br&gt;&lt;/p&gt;" style="verticalAlign=middle;align=center;overflow=fill;fontSize=12;fontFamily=Helvetica;html=1;rounded=1;fontStyle=1;strokeWidth=3;fillColor=#E6FFCC;arcSize=4;" vertex="1" parent="1">
          <mxGeometry x="-450" y="231.5" width="330" height="468.5" as="geometry" />
        </mxCell>
        <mxCell id="nVRuVsThQJJAnQxjmGm0-98" value="&lt;p style=&quot;margin: 0px ; margin-top: 4px ; text-align: center ; text-decoration: underline&quot;&gt;[Multiple] Individual&amp;nbsp;&lt;/p&gt;&lt;p style=&quot;margin: 0px ; margin-top: 4px ; text-align: center ; text-decoration: underline&quot;&gt;Narratives&lt;/p&gt;&lt;hr&gt;&lt;p style=&quot;margin: 0px ; margin-left: 8px&quot;&gt;Text1: Name&lt;/p&gt;&lt;p style=&quot;margin: 0px ; margin-left: 8px&quot;&gt;Text2: Description&lt;/p&gt;&lt;p style=&quot;margin: 0px ; margin-left: 8px&quot;&gt;Funct1: Trash&lt;/p&gt;&lt;p style=&quot;margin: 0px ; margin-left: 8px&quot;&gt;Funct2: Edit&lt;/p&gt;" style="verticalAlign=middle;align=center;overflow=fill;fontSize=12;fontFamily=Helvetica;html=1;rounded=1;fontStyle=1;strokeWidth=3;fillColor=#E6FFCC" vertex="1" parent="1">
          <mxGeometry x="-430" y="271" width="180" height="109" as="geometry" />
        </mxCell>
        <mxCell id="nVRuVsThQJJAnQxjmGm0-100" value="&lt;p style=&quot;margin: 0px ; margin-top: 4px ; text-align: center ; text-decoration: underline&quot;&gt;&lt;strong&gt;Search Bar&lt;br&gt;&lt;/strong&gt;&lt;/p&gt;&lt;hr&gt;&lt;p style=&quot;margin: 0px ; margin-left: 8px&quot;&gt;Input: Term&lt;/p&gt;&lt;p style=&quot;margin: 0px ; margin-left: 8px&quot;&gt;Function: search&amp;nbsp;&lt;/p&gt;&lt;p style=&quot;margin: 0px ; margin-left: 8px&quot;&gt;input Term&lt;/p&gt;" style="verticalAlign=middle;align=center;overflow=auto;fontSize=12;fontFamily=Helvetica;html=1;rounded=1;fontStyle=1;strokeWidth=3;fillColor=#E6FFCC" vertex="1" parent="1">
          <mxGeometry x="-290" y="45" width="110" height="90" as="geometry" />
        </mxCell>
        <mxCell id="nVRuVsThQJJAnQxjmGm0-101" value="&lt;p style=&quot;margin: 0px ; margin-top: 4px ; text-align: center ; text-decoration: underline&quot;&gt;&lt;strong&gt;New Narrative&lt;br&gt;&lt;/strong&gt;&lt;/p&gt;&lt;hr&gt;&lt;p style=&quot;margin: 0px ; margin-left: 8px&quot;&gt;&lt;br&gt;&lt;/p&gt;" style="verticalAlign=middle;align=center;overflow=auto;fontSize=12;fontFamily=Helvetica;html=1;rounded=1;fontStyle=1;strokeWidth=3;fillColor=#E6FFCC" vertex="1" parent="1">
          <mxGeometry x="-170" y="45" width="110" height="90" as="geometry" />
        </mxCell>
        <mxCell id="nVRuVsThQJJAnQxjmGm0-103" value="" style="edgeStyle=elbowEdgeStyle;elbow=horizontal;strokeColor=#00CC00;strokeWidth=2;exitX=0.5;exitY=1;exitDx=0;exitDy=0;" edge="1" parent="1" source="nVRuVsThQJJAnQxjmGm0-100">
          <mxGeometry width="100" height="100" relative="1" as="geometry">
            <mxPoint x="-180" y="180" as="sourcePoint" />
            <mxPoint x="-235" y="230" as="targetPoint" />
            <Array as="points">
              <mxPoint x="-235" y="170" />
            </Array>
          </mxGeometry>
        </mxCell>
        <mxCell id="nVRuVsThQJJAnQxjmGm0-104" value="Browse Templates" style="swimlane;fontStyle=0;childLayout=stackLayout;horizontal=1;startSize=26;horizontalStack=0;resizeParent=1;resizeParentMax=0;resizeLast=0;collapsible=1;marginBottom=0;fillColor=#E6FFCC;" vertex="1" parent="1">
          <mxGeometry x="-750" y="271" width="140" height="52" as="geometry" />
        </mxCell>
        <mxCell id="nVRuVsThQJJAnQxjmGm0-105" value="Funct:" style="text;strokeColor=none;fillColor=none;align=left;verticalAlign=top;spacingLeft=4;spacingRight=4;overflow=hidden;rotatable=0;points=[[0,0.5],[1,0.5]];portConstraint=eastwest;" vertex="1" parent="nVRuVsThQJJAnQxjmGm0-104">
          <mxGeometry y="26" width="140" height="26" as="geometry" />
        </mxCell>
        <mxCell id="nVRuVsThQJJAnQxjmGm0-111" value="" style="edgeStyle=elbowEdgeStyle;elbow=horizontal;strokeColor=#FF0000;strokeWidth=2;exitX=1;exitY=0.25;exitDx=0;exitDy=0;" edge="1" parent="1" source="nVRuVsThQJJAnQxjmGm0-104">
          <mxGeometry width="100" height="100" relative="1" as="geometry">
            <mxPoint x="-390" y="190" as="sourcePoint" />
            <mxPoint x="-450" y="284" as="targetPoint" />
            <Array as="points">
              <mxPoint x="-490" y="300" />
            </Array>
          </mxGeometry>
        </mxCell>
        <mxCell id="nVRuVsThQJJAnQxjmGm0-112" value="All Narratives" style="swimlane;fontStyle=0;childLayout=stackLayout;horizontal=1;startSize=26;horizontalStack=0;resizeParent=1;resizeParentMax=0;resizeLast=0;collapsible=1;marginBottom=0;fillColor=#E6FFCC;" vertex="1" parent="1">
          <mxGeometry x="-750" y="331" width="140" height="52" as="geometry" />
        </mxCell>
        <mxCell id="nVRuVsThQJJAnQxjmGm0-113" value="Funct:" style="text;strokeColor=none;fillColor=none;align=left;verticalAlign=top;spacingLeft=4;spacingRight=4;overflow=hidden;rotatable=0;points=[[0,0.5],[1,0.5]];portConstraint=eastwest;" vertex="1" parent="nVRuVsThQJJAnQxjmGm0-112">
          <mxGeometry y="26" width="140" height="26" as="geometry" />
        </mxCell>
        <mxCell id="nVRuVsThQJJAnQxjmGm0-114" value="" style="edgeStyle=elbowEdgeStyle;elbow=horizontal;strokeColor=#00CC00;strokeWidth=2;exitX=1;exitY=0.25;exitDx=0;exitDy=0;" edge="1" parent="1" source="nVRuVsThQJJAnQxjmGm0-112">
          <mxGeometry width="100" height="100" relative="1" as="geometry">
            <mxPoint x="-390" y="250" as="sourcePoint" />
            <mxPoint x="-450" y="344" as="targetPoint" />
            <Array as="points">
              <mxPoint x="-490" y="360" />
            </Array>
          </mxGeometry>
        </mxCell>
        <mxCell id="nVRuVsThQJJAnQxjmGm0-115" value="Tags" style="swimlane;fontStyle=0;childLayout=stackLayout;horizontal=1;startSize=26;horizontalStack=0;resizeParent=1;resizeParentMax=0;resizeLast=0;collapsible=1;marginBottom=0;fillColor=#E6FFCC;" vertex="1" parent="1">
          <mxGeometry x="-750" y="391" width="140" height="78" as="geometry" />
        </mxCell>
        <mxCell id="nVRuVsThQJJAnQxjmGm0-119" value="Funct1: List #Tags" style="text;strokeColor=none;fillColor=none;align=left;verticalAlign=top;spacingLeft=4;spacingRight=4;overflow=hidden;rotatable=0;points=[[0,0.5],[1,0.5]];portConstraint=eastwest;" vertex="1" parent="nVRuVsThQJJAnQxjmGm0-115">
          <mxGeometry y="26" width="140" height="26" as="geometry" />
        </mxCell>
        <mxCell id="nVRuVsThQJJAnQxjmGm0-116" value="Funct2: filter by Tag" style="text;strokeColor=none;fillColor=none;align=left;verticalAlign=top;spacingLeft=4;spacingRight=4;overflow=hidden;rotatable=0;points=[[0,0.5],[1,0.5]];portConstraint=eastwest;" vertex="1" parent="nVRuVsThQJJAnQxjmGm0-115">
          <mxGeometry y="52" width="140" height="26" as="geometry" />
        </mxCell>
        <mxCell id="nVRuVsThQJJAnQxjmGm0-117" value="" style="edgeStyle=elbowEdgeStyle;elbow=horizontal;strokeColor=#00CC00;strokeWidth=2;" edge="1" parent="1" source="nVRuVsThQJJAnQxjmGm0-116">
          <mxGeometry width="100" height="100" relative="1" as="geometry">
            <mxPoint x="-610" y="453" as="sourcePoint" />
            <mxPoint x="-453" y="456" as="targetPoint" />
            <Array as="points">
              <mxPoint x="-580" y="421" />
            </Array>
          </mxGeometry>
        </mxCell>
        <mxCell id="nVRuVsThQJJAnQxjmGm0-118" value="Display&#xa;All Narratives" style="text;spacingTop=-5;align=center;fillColor=none;" vertex="1" parent="1">
          <mxGeometry x="-580" y="311" width="100" height="30" as="geometry" />
        </mxCell>
        <mxCell id="nVRuVsThQJJAnQxjmGm0-120" value="Folder  " style="swimlane;fontStyle=0;childLayout=stackLayout;horizontal=1;startSize=26;horizontalStack=0;resizeParent=1;resizeParentMax=0;resizeLast=0;collapsible=1;marginBottom=0;fillColor=#E6FFCC;" vertex="1" parent="1">
          <mxGeometry x="-751" y="481" width="140" height="116" as="geometry" />
        </mxCell>
        <mxCell id="YTCEXuZB0NYoN68FmnSw-52" value="Input1: new folder name" style="text;strokeColor=none;fillColor=none;align=left;verticalAlign=top;spacingLeft=4;spacingRight=4;overflow=hidden;rotatable=0;points=[[0,0.5],[1,0.5]];portConstraint=eastwest;" vertex="1" parent="nVRuVsThQJJAnQxjmGm0-120">
          <mxGeometry y="26" width="140" height="26" as="geometry" />
        </mxCell>
        <mxCell id="nVRuVsThQJJAnQxjmGm0-121" value="Funct1: Add new folder" style="text;strokeColor=none;fillColor=none;align=left;verticalAlign=top;spacingLeft=4;spacingRight=4;overflow=hidden;rotatable=0;points=[[0,0.5],[1,0.5]];portConstraint=eastwest;" vertex="1" parent="nVRuVsThQJJAnQxjmGm0-120">
          <mxGeometry y="52" width="140" height="26" as="geometry" />
        </mxCell>
        <mxCell id="nVRuVsThQJJAnQxjmGm0-124" value="Funct2: Select and filter &#xa;by folder name" style="text;strokeColor=none;fillColor=none;align=left;verticalAlign=top;spacingLeft=4;spacingRight=4;overflow=hidden;rotatable=0;points=[[0,0.5],[1,0.5]];portConstraint=eastwest;overflow-wrap=normal;" vertex="1" parent="nVRuVsThQJJAnQxjmGm0-120">
          <mxGeometry y="78" width="140" height="38" as="geometry" />
        </mxCell>
        <mxCell id="nVRuVsThQJJAnQxjmGm0-123" value="" style="edgeStyle=elbowEdgeStyle;elbow=horizontal;strokeColor=#00CC00;strokeWidth=2;exitX=1;exitY=0.5;exitDx=0;exitDy=0;entryX=-0.003;entryY=0.684;entryDx=0;entryDy=0;entryPerimeter=0;" edge="1" parent="1" source="nVRuVsThQJJAnQxjmGm0-124" target="nVRuVsThQJJAnQxjmGm0-97">
          <mxGeometry width="100" height="100" relative="1" as="geometry">
            <mxPoint x="-611" y="543" as="sourcePoint" />
            <mxPoint x="-450" y="547" as="targetPoint" />
            <Array as="points">
              <mxPoint x="-560" y="490" />
            </Array>
          </mxGeometry>
        </mxCell>
        <mxCell id="nVRuVsThQJJAnQxjmGm0-125" value="Display&#xa;Selected Tag" style="text;spacingTop=-5;align=center;fillColor=none;" vertex="1" parent="1">
          <mxGeometry x="-580" y="421" width="100" height="30" as="geometry" />
        </mxCell>
        <mxCell id="nVRuVsThQJJAnQxjmGm0-129" value="Display&#xa;Selected Folder" style="text;spacingTop=-5;align=center;fillColor=none;" vertex="1" parent="1">
          <mxGeometry x="-580" y="520" width="100" height="30" as="geometry" />
        </mxCell>
        <mxCell id="nVRuVsThQJJAnQxjmGm0-130" value="My Assets and Media" style="swimlane;fontStyle=0;childLayout=stackLayout;horizontal=1;startSize=26;horizontalStack=0;resizeParent=1;resizeParentMax=0;resizeLast=0;collapsible=1;marginBottom=0;fillColor=#E6FFCC;" vertex="1" parent="1">
          <mxGeometry x="-750" y="600" width="140" height="94" as="geometry" />
        </mxCell>
        <mxCell id="nVRuVsThQJJAnQxjmGm0-138" value="Funct: Add new Asset or&#xa;Media" style="text;strokeColor=none;fillColor=#FF0000;align=left;verticalAlign=top;spacingLeft=4;spacingRight=4;overflow=hidden;rotatable=0;points=[[0,0.5],[1,0.5]];portConstraint=eastwest;" vertex="1" parent="nVRuVsThQJJAnQxjmGm0-130">
          <mxGeometry y="26" width="140" height="34" as="geometry" />
        </mxCell>
        <mxCell id="nVRuVsThQJJAnQxjmGm0-131" value="Funct2: Select and filter&#xa;Assets and Media" style="text;strokeColor=none;fillColor=#FF0000;align=left;verticalAlign=top;spacingLeft=4;spacingRight=4;overflow=hidden;rotatable=0;points=[[0,0.5],[1,0.5]];portConstraint=eastwest;" vertex="1" parent="nVRuVsThQJJAnQxjmGm0-130">
          <mxGeometry y="60" width="140" height="34" as="geometry" />
        </mxCell>
        <mxCell id="nVRuVsThQJJAnQxjmGm0-132" value="" style="edgeStyle=elbowEdgeStyle;elbow=horizontal;strokeColor=#00CC00;strokeWidth=2;exitX=1;exitY=0.25;exitDx=0;exitDy=0;" edge="1" parent="1" source="nVRuVsThQJJAnQxjmGm0-130">
          <mxGeometry width="100" height="100" relative="1" as="geometry">
            <mxPoint x="-391" y="549" as="sourcePoint" />
            <mxPoint x="-451" y="624" as="targetPoint" />
            <Array as="points">
              <mxPoint x="-491" y="659" />
            </Array>
          </mxGeometry>
        </mxCell>
        <mxCell id="nVRuVsThQJJAnQxjmGm0-133" value="Display all Assets &#xa;and Media" style="text;spacingTop=-5;align=center;fillColor=none;" vertex="1" parent="1">
          <mxGeometry x="-580" y="590" width="100" height="30" as="geometry" />
        </mxCell>
        <mxCell id="nVRuVsThQJJAnQxjmGm0-134" value="" style="endArrow=none;html=1;strokeColor=#B3B3B3;exitX=0.003;exitY=0.347;exitDx=0;exitDy=0;exitPerimeter=0;entryX=1.003;entryY=0.353;entryDx=0;entryDy=0;entryPerimeter=0;" edge="1" parent="1" source="nVRuVsThQJJAnQxjmGm0-97" target="nVRuVsThQJJAnQxjmGm0-97">
          <mxGeometry width="50" height="50" relative="1" as="geometry">
            <mxPoint x="-340" y="490" as="sourcePoint" />
            <mxPoint x="-290" y="440" as="targetPoint" />
          </mxGeometry>
        </mxCell>
        <mxCell id="nVRuVsThQJJAnQxjmGm0-135" value="&lt;p style=&quot;margin: 0px ; margin-top: 4px ; text-align: center ; text-decoration: underline&quot;&gt;[Multiple] Template&lt;/p&gt;&lt;hr&gt;&lt;p style=&quot;margin: 0px ; margin-left: 8px&quot;&gt;TBD&lt;/p&gt;" style="verticalAlign=middle;align=center;overflow=fill;fontSize=12;fontFamily=Helvetica;html=1;rounded=1;fontStyle=1;strokeWidth=3;fillColor=#FF0000;" vertex="1" parent="1">
          <mxGeometry x="-430" y="411" width="170" height="59" as="geometry" />
        </mxCell>
        <mxCell id="nVRuVsThQJJAnQxjmGm0-136" value="&lt;p style=&quot;margin: 0px ; margin-top: 4px ; text-align: center ; text-decoration: underline&quot;&gt;[Multiple] Assets and Media&lt;/p&gt;&lt;hr&gt;&lt;p style=&quot;margin: 0px ; margin-left: 8px&quot;&gt;TBD&lt;/p&gt;" style="verticalAlign=middle;align=center;overflow=fill;fontSize=12;fontFamily=Helvetica;html=1;rounded=1;fontStyle=1;strokeWidth=3;fillColor=#FF0000;" vertex="1" parent="1">
          <mxGeometry x="-430" y="526" width="170" height="59" as="geometry" />
        </mxCell>
        <mxCell id="nVRuVsThQJJAnQxjmGm0-137" value="" style="endArrow=none;html=1;strokeColor=#B3B3B3;exitX=0.003;exitY=0.347;exitDx=0;exitDy=0;exitPerimeter=0;" edge="1" parent="1">
          <mxGeometry width="50" height="50" relative="1" as="geometry">
            <mxPoint x="-449.99999999999994" y="507.18949999999995" as="sourcePoint" />
            <mxPoint x="-120" y="510" as="targetPoint" />
          </mxGeometry>
        </mxCell>
        <mxCell id="nVRuVsThQJJAnQxjmGm0-139" value="Display Narratives &#xa;that matches&#xa; name or description &#xa;to search term" style="text;spacingTop=-5;align=center;fillColor=none;" vertex="1" parent="1">
          <mxGeometry x="-370" y="150" width="130" height="60" as="geometry" />
        </mxCell>
      </root>
    </mxGraphModel>
  </diagram>
  <diagram name="New Page" id="6xnLMfBj0HTBO8Ldg8qR">
    <mxGraphModel dx="2351" dy="676" grid="1" gridSize="10" guides="1" tooltips="1" connect="1" arrows="1" fold="1" page="1" pageScale="1" pageWidth="826" pageHeight="1169" background="none" math="0" shadow="0">
      <root>
        <mxCell id="I9fBA1G8RvBwMTr_-GKv-0" />
        <mxCell id="I9fBA1G8RvBwMTr_-GKv-1" parent="I9fBA1G8RvBwMTr_-GKv-0" />
        <mxCell id="I9fBA1G8RvBwMTr_-GKv-3" value="&lt;p style=&quot;margin: 0px ; margin-left: 8px&quot;&gt;&lt;u&gt;Blank Narrative&lt;/u&gt;&lt;/p&gt;" style="verticalAlign=middle;align=center;overflow=fill;fontSize=12;fontFamily=Helvetica;html=1;rounded=1;fontStyle=1;strokeWidth=3;fillColor=#E6FFCC;arcSize=4;" vertex="1" parent="I9fBA1G8RvBwMTr_-GKv-1">
          <mxGeometry x="-450" y="360" width="330" height="270" as="geometry" />
        </mxCell>
        <mxCell id="_H5bD31DnlQ01QwcUPAR-9" style="edgeStyle=orthogonalEdgeStyle;rounded=0;orthogonalLoop=1;jettySize=auto;html=1;strokeColor=#00CC00;" edge="1" parent="I9fBA1G8RvBwMTr_-GKv-1" source="I9fBA1G8RvBwMTr_-GKv-5">
          <mxGeometry relative="1" as="geometry">
            <mxPoint x="109" y="132" as="targetPoint" />
            <Array as="points">
              <mxPoint x="-290" y="228" />
              <mxPoint x="-290" y="132" />
            </Array>
          </mxGeometry>
        </mxCell>
        <mxCell id="_H5bD31DnlQ01QwcUPAR-16" style="edgeStyle=orthogonalEdgeStyle;rounded=0;orthogonalLoop=1;jettySize=auto;html=1;entryX=0.233;entryY=0;entryDx=0;entryDy=0;entryPerimeter=0;strokeColor=#00CC00;" edge="1" parent="I9fBA1G8RvBwMTr_-GKv-1" source="I9fBA1G8RvBwMTr_-GKv-5" target="I9fBA1G8RvBwMTr_-GKv-3">
          <mxGeometry relative="1" as="geometry" />
        </mxCell>
        <mxCell id="I9fBA1G8RvBwMTr_-GKv-5" value="&lt;p style=&quot;margin: 0px ; margin-top: 4px ; text-align: center ; text-decoration: underline&quot;&gt;&lt;strong&gt;Text&lt;br&gt;&lt;/strong&gt;&lt;/p&gt;&lt;hr&gt;&lt;p style=&quot;margin: 0px ; margin-left: 8px&quot;&gt;Input: Drag and&lt;/p&gt;&lt;p style=&quot;margin: 0px ; margin-left: 8px&quot;&gt;Drop to location&lt;/p&gt;&lt;p style=&quot;margin: 0px ; margin-left: 8px&quot;&gt;Funct1: Popup&lt;/p&gt;&lt;p style=&quot;margin: 0px ; margin-left: 8px&quot;&gt;Text Settings&lt;/p&gt;&lt;p style=&quot;margin: 0px ; margin-left: 8px&quot;&gt;sidebar&lt;/p&gt;" style="verticalAlign=middle;align=center;overflow=auto;fontSize=12;fontFamily=Helvetica;html=1;rounded=1;fontStyle=1;strokeWidth=3;fillColor=#E6FFCC" vertex="1" parent="I9fBA1G8RvBwMTr_-GKv-1">
          <mxGeometry x="-428" y="175" width="110" height="105" as="geometry" />
        </mxCell>
        <mxCell id="I9fBA1G8RvBwMTr_-GKv-6" value="&lt;p style=&quot;margin: 0px ; margin-top: 4px ; text-align: center ; text-decoration: underline&quot;&gt;&lt;strong&gt;Back&lt;br&gt;&lt;/strong&gt;&lt;/p&gt;&lt;hr&gt;&lt;p style=&quot;margin: 0px ; margin-left: 8px&quot;&gt;Funct1: Return&lt;/p&gt;&lt;p style=&quot;margin: 0px ; margin-left: 8px&quot;&gt;to Portal page&lt;/p&gt;" style="verticalAlign=middle;align=center;overflow=auto;fontSize=12;fontFamily=Helvetica;html=1;rounded=1;fontStyle=1;strokeWidth=3;fillColor=#E6FFCC" vertex="1" parent="I9fBA1G8RvBwMTr_-GKv-1">
          <mxGeometry x="-720" y="210" width="110" height="90" as="geometry" />
        </mxCell>
        <mxCell id="I9fBA1G8RvBwMTr_-GKv-14" value="Narrative Details&#xa;(Popup)" style="swimlane;fontStyle=0;childLayout=stackLayout;horizontal=1;startSize=39;horizontalStack=0;resizeParent=1;resizeParentMax=0;resizeLast=0;collapsible=1;marginBottom=0;fillColor=#E6FFCC;" vertex="1" parent="I9fBA1G8RvBwMTr_-GKv-1">
          <mxGeometry x="-750" y="391" width="140" height="220" as="geometry" />
        </mxCell>
        <mxCell id="I9fBA1G8RvBwMTr_-GKv-15" value="Input1: Narrative name" style="text;strokeColor=none;fillColor=none;align=left;verticalAlign=top;spacingLeft=4;spacingRight=4;overflow=hidden;rotatable=0;points=[[0,0.5],[1,0.5]];portConstraint=eastwest;" vertex="1" parent="I9fBA1G8RvBwMTr_-GKv-14">
          <mxGeometry y="39" width="140" height="26" as="geometry" />
        </mxCell>
        <mxCell id="_H5bD31DnlQ01QwcUPAR-0" value="Input2: Description" style="text;strokeColor=none;fillColor=none;align=left;verticalAlign=top;spacingLeft=4;spacingRight=4;overflow=hidden;rotatable=0;points=[[0,0.5],[1,0.5]];portConstraint=eastwest;" vertex="1" parent="I9fBA1G8RvBwMTr_-GKv-14">
          <mxGeometry y="65" width="140" height="26" as="geometry" />
        </mxCell>
        <mxCell id="_H5bD31DnlQ01QwcUPAR-1" value="Input3: Privacy (public, &#xa;private-members,&#xa;private-you)" style="text;strokeColor=none;fillColor=none;align=left;verticalAlign=top;spacingLeft=4;spacingRight=4;overflow=hidden;rotatable=0;points=[[0,0.5],[1,0.5]];portConstraint=eastwest;" vertex="1" parent="I9fBA1G8RvBwMTr_-GKv-14">
          <mxGeometry y="91" width="140" height="59" as="geometry" />
        </mxCell>
        <mxCell id="_H5bD31DnlQ01QwcUPAR-2" value="Input4: Tags" style="text;strokeColor=none;fillColor=none;align=left;verticalAlign=top;spacingLeft=4;spacingRight=4;overflow=hidden;rotatable=0;points=[[0,0.5],[1,0.5]];portConstraint=eastwest;" vertex="1" parent="I9fBA1G8RvBwMTr_-GKv-14">
          <mxGeometry y="150" width="140" height="30" as="geometry" />
        </mxCell>
        <mxCell id="I9fBA1G8RvBwMTr_-GKv-16" value="Funct1: Create this &#xa;narrative" style="text;strokeColor=none;fillColor=none;align=left;verticalAlign=top;spacingLeft=4;spacingRight=4;overflow=hidden;rotatable=0;points=[[0,0.5],[1,0.5]];portConstraint=eastwest;" vertex="1" parent="I9fBA1G8RvBwMTr_-GKv-14">
          <mxGeometry y="180" width="140" height="40" as="geometry" />
        </mxCell>
        <mxCell id="I9fBA1G8RvBwMTr_-GKv-17" value="" style="edgeStyle=elbowEdgeStyle;elbow=horizontal;strokeColor=#00CC00;strokeWidth=2;" edge="1" parent="I9fBA1G8RvBwMTr_-GKv-1" source="I9fBA1G8RvBwMTr_-GKv-16">
          <mxGeometry width="100" height="100" relative="1" as="geometry">
            <mxPoint x="-610" y="453" as="sourcePoint" />
            <mxPoint x="-454" y="591" as="targetPoint" />
            <Array as="points">
              <mxPoint x="-500" y="500" />
              <mxPoint x="-580" y="421" />
            </Array>
          </mxGeometry>
        </mxCell>
        <mxCell id="I9fBA1G8RvBwMTr_-GKv-23" value="Close Popup &amp;&#xa;Initiate blank narrative " style="text;spacingTop=-5;align=center;fillColor=none;" vertex="1" parent="I9fBA1G8RvBwMTr_-GKv-1">
          <mxGeometry x="-590" y="555" width="100" height="30" as="geometry" />
        </mxCell>
        <mxCell id="I9fBA1G8RvBwMTr_-GKv-34" value="Display text box options&#xa;based on drag and &#xa;drop location on&#xa;canvas" style="text;spacingTop=-5;align=center;fillColor=none;" vertex="1" parent="I9fBA1G8RvBwMTr_-GKv-1">
          <mxGeometry x="-508" y="280" width="130" height="60" as="geometry" />
        </mxCell>
        <mxCell id="_H5bD31DnlQ01QwcUPAR-5" style="edgeStyle=orthogonalEdgeStyle;rounded=0;orthogonalLoop=1;jettySize=auto;html=1;strokeColor=#FF0000;" edge="1" parent="I9fBA1G8RvBwMTr_-GKv-1" source="_H5bD31DnlQ01QwcUPAR-1">
          <mxGeometry relative="1" as="geometry">
            <mxPoint x="-450" y="511.5" as="targetPoint" />
          </mxGeometry>
        </mxCell>
        <mxCell id="_H5bD31DnlQ01QwcUPAR-6" style="edgeStyle=orthogonalEdgeStyle;rounded=0;orthogonalLoop=1;jettySize=auto;html=1;exitX=1;exitY=0.5;exitDx=0;exitDy=0;strokeColor=#FF0000;" edge="1" parent="I9fBA1G8RvBwMTr_-GKv-1" source="_H5bD31DnlQ01QwcUPAR-0">
          <mxGeometry relative="1" as="geometry">
            <mxPoint x="-450" y="470" as="targetPoint" />
          </mxGeometry>
        </mxCell>
        <mxCell id="_H5bD31DnlQ01QwcUPAR-7" style="edgeStyle=orthogonalEdgeStyle;rounded=0;orthogonalLoop=1;jettySize=auto;html=1;exitX=1;exitY=0.5;exitDx=0;exitDy=0;entryX=-0.009;entryY=0.307;entryDx=0;entryDy=0;strokeColor=#FF0000;entryPerimeter=0;" edge="1" parent="I9fBA1G8RvBwMTr_-GKv-1" source="I9fBA1G8RvBwMTr_-GKv-15" target="I9fBA1G8RvBwMTr_-GKv-3">
          <mxGeometry relative="1" as="geometry" />
        </mxCell>
        <mxCell id="_H5bD31DnlQ01QwcUPAR-8" style="edgeStyle=orthogonalEdgeStyle;rounded=0;orthogonalLoop=1;jettySize=auto;html=1;exitX=1;exitY=0.5;exitDx=0;exitDy=0;entryX=0;entryY=0.726;entryDx=0;entryDy=0;entryPerimeter=0;strokeColor=#FF0000;" edge="1" parent="I9fBA1G8RvBwMTr_-GKv-1" source="_H5bD31DnlQ01QwcUPAR-2" target="I9fBA1G8RvBwMTr_-GKv-3">
          <mxGeometry relative="1" as="geometry" />
        </mxCell>
        <mxCell id="_H5bD31DnlQ01QwcUPAR-27" style="edgeStyle=orthogonalEdgeStyle;rounded=0;orthogonalLoop=1;jettySize=auto;html=1;entryX=0.273;entryY=0;entryDx=0;entryDy=0;entryPerimeter=0;strokeColor=#00CC00;" edge="1" parent="I9fBA1G8RvBwMTr_-GKv-1" source="_H5bD31DnlQ01QwcUPAR-10" target="I9fBA1G8RvBwMTr_-GKv-3">
          <mxGeometry relative="1" as="geometry">
            <mxPoint x="108" y="140" as="sourcePoint" />
            <Array as="points">
              <mxPoint x="-270" y="144" />
              <mxPoint x="-270" y="300" />
              <mxPoint x="-360" y="300" />
            </Array>
          </mxGeometry>
        </mxCell>
        <mxCell id="_H5bD31DnlQ01QwcUPAR-10" value="Text Settings sidebar&#xa;(Popup)" style="swimlane;fontStyle=0;childLayout=stackLayout;horizontal=1;startSize=39;horizontalStack=0;resizeParent=1;resizeParentMax=0;resizeLast=0;collapsible=1;marginBottom=0;fillColor=#E6FFCC;" vertex="1" parent="I9fBA1G8RvBwMTr_-GKv-1">
          <mxGeometry x="110" y="110" width="150" height="630" as="geometry" />
        </mxCell>
        <mxCell id="_H5bD31DnlQ01QwcUPAR-11" value="Input1: font selection&#xa;dropdown menu" style="text;strokeColor=none;fillColor=none;align=left;verticalAlign=top;spacingLeft=4;spacingRight=4;overflow=hidden;rotatable=0;points=[[0,0.5],[1,0.5]];portConstraint=eastwest;" vertex="1" parent="_H5bD31DnlQ01QwcUPAR-10">
          <mxGeometry y="39" width="150" height="41" as="geometry" />
        </mxCell>
        <mxCell id="_H5bD31DnlQ01QwcUPAR-12" value="Input2: heading selection&#xa;dropdown menu" style="text;strokeColor=none;fillColor=none;align=left;verticalAlign=top;spacingLeft=4;spacingRight=4;overflow=hidden;rotatable=0;points=[[0,0.5],[1,0.5]];portConstraint=eastwest;" vertex="1" parent="_H5bD31DnlQ01QwcUPAR-10">
          <mxGeometry y="80" width="150" height="40" as="geometry" />
        </mxCell>
        <mxCell id="_H5bD31DnlQ01QwcUPAR-13" value="Input3: font size selection&#xa;dropdown menu" style="text;strokeColor=none;fillColor=none;align=left;verticalAlign=top;spacingLeft=4;spacingRight=4;overflow=hidden;rotatable=0;points=[[0,0.5],[1,0.5]];portConstraint=eastwest;" vertex="1" parent="_H5bD31DnlQ01QwcUPAR-10">
          <mxGeometry y="120" width="150" height="40" as="geometry" />
        </mxCell>
        <mxCell id="_H5bD31DnlQ01QwcUPAR-14" value="Input4: Bold selection &#xa;boolean" style="text;strokeColor=none;fillColor=none;align=left;verticalAlign=top;spacingLeft=4;spacingRight=4;overflow=hidden;rotatable=0;points=[[0,0.5],[1,0.5]];portConstraint=eastwest;" vertex="1" parent="_H5bD31DnlQ01QwcUPAR-10">
          <mxGeometry y="160" width="150" height="40" as="geometry" />
        </mxCell>
        <mxCell id="_H5bD31DnlQ01QwcUPAR-17" value="Input5: Italic selection&#xa;boolean" style="text;strokeColor=none;fillColor=none;align=left;verticalAlign=top;spacingLeft=4;spacingRight=4;overflow=hidden;rotatable=0;points=[[0,0.5],[1,0.5]];portConstraint=eastwest;" vertex="1" parent="_H5bD31DnlQ01QwcUPAR-10">
          <mxGeometry y="200" width="150" height="40" as="geometry" />
        </mxCell>
        <mxCell id="_H5bD31DnlQ01QwcUPAR-18" value="Input6: Underline selection&#xa;boolean" style="text;strokeColor=none;fillColor=none;align=left;verticalAlign=top;spacingLeft=4;spacingRight=4;overflow=hidden;rotatable=0;points=[[0,0.5],[1,0.5]];portConstraint=eastwest;" vertex="1" parent="_H5bD31DnlQ01QwcUPAR-10">
          <mxGeometry y="240" width="150" height="40" as="geometry" />
        </mxCell>
        <mxCell id="_H5bD31DnlQ01QwcUPAR-19" value="Input7: Strike through&#xa;selection boolean" style="text;strokeColor=none;fillColor=none;align=left;verticalAlign=top;spacingLeft=4;spacingRight=4;overflow=hidden;rotatable=0;points=[[0,0.5],[1,0.5]];portConstraint=eastwest;" vertex="1" parent="_H5bD31DnlQ01QwcUPAR-10">
          <mxGeometry y="280" width="150" height="40" as="geometry" />
        </mxCell>
        <mxCell id="_H5bD31DnlQ01QwcUPAR-20" value="Input8: Quotation &#xa;selection boolean????" style="text;strokeColor=none;fillColor=#FF8000;align=left;verticalAlign=top;spacingLeft=4;spacingRight=4;overflow=hidden;rotatable=0;points=[[0,0.5],[1,0.5]];portConstraint=eastwest;" vertex="1" parent="_H5bD31DnlQ01QwcUPAR-10">
          <mxGeometry y="320" width="150" height="40" as="geometry" />
        </mxCell>
        <mxCell id="_H5bD31DnlQ01QwcUPAR-21" value="Input9: Paragraph&#xa;selection boolean" style="text;strokeColor=none;fillColor=none;align=left;verticalAlign=top;spacingLeft=4;spacingRight=4;overflow=hidden;rotatable=0;points=[[0,0.5],[1,0.5]];portConstraint=eastwest;" vertex="1" parent="_H5bD31DnlQ01QwcUPAR-10">
          <mxGeometry y="360" width="150" height="40" as="geometry" />
        </mxCell>
        <mxCell id="_H5bD31DnlQ01QwcUPAR-22" value="Input10: Numeration&#xa;selection boolean" style="text;strokeColor=none;fillColor=none;align=left;verticalAlign=top;spacingLeft=4;spacingRight=4;overflow=hidden;rotatable=0;points=[[0,0.5],[1,0.5]];portConstraint=eastwest;" vertex="1" parent="_H5bD31DnlQ01QwcUPAR-10">
          <mxGeometry y="400" width="150" height="40" as="geometry" />
        </mxCell>
        <mxCell id="_H5bD31DnlQ01QwcUPAR-23" value="Input11: Itemization&#xa;selection boolean" style="text;strokeColor=none;fillColor=none;align=left;verticalAlign=top;spacingLeft=4;spacingRight=4;overflow=hidden;rotatable=0;points=[[0,0.5],[1,0.5]];portConstraint=eastwest;" vertex="1" parent="_H5bD31DnlQ01QwcUPAR-10">
          <mxGeometry y="440" width="150" height="40" as="geometry" />
        </mxCell>
        <mxCell id="_H5bD31DnlQ01QwcUPAR-24" value="Input12: Justification&#xa;selection dropdown menu" style="text;strokeColor=none;fillColor=none;align=left;verticalAlign=top;spacingLeft=4;spacingRight=4;overflow=hidden;rotatable=0;points=[[0,0.5],[1,0.5]];portConstraint=eastwest;" vertex="1" parent="_H5bD31DnlQ01QwcUPAR-10">
          <mxGeometry y="480" width="150" height="40" as="geometry" />
        </mxCell>
        <mxCell id="_H5bD31DnlQ01QwcUPAR-25" value="Input13: Insert hyperlink&#xa;popup" style="text;strokeColor=none;fillColor=none;align=left;verticalAlign=top;spacingLeft=4;spacingRight=4;overflow=hidden;rotatable=0;points=[[0,0.5],[1,0.5]];portConstraint=eastwest;" vertex="1" parent="_H5bD31DnlQ01QwcUPAR-10">
          <mxGeometry y="520" width="150" height="40" as="geometry" />
        </mxCell>
        <mxCell id="_H5bD31DnlQ01QwcUPAR-26" value="Input14: Clear font" style="text;strokeColor=none;fillColor=none;align=left;verticalAlign=top;spacingLeft=4;spacingRight=4;overflow=hidden;rotatable=0;points=[[0,0.5],[1,0.5]];portConstraint=eastwest;" vertex="1" parent="_H5bD31DnlQ01QwcUPAR-10">
          <mxGeometry y="560" width="150" height="30" as="geometry" />
        </mxCell>
        <mxCell id="_H5bD31DnlQ01QwcUPAR-15" value="Input15: Text font color&#xa;popup selection" style="text;strokeColor=none;fillColor=none;align=left;verticalAlign=top;spacingLeft=4;spacingRight=4;overflow=hidden;rotatable=0;points=[[0,0.5],[1,0.5]];portConstraint=eastwest;" vertex="1" parent="_H5bD31DnlQ01QwcUPAR-10">
          <mxGeometry y="590" width="150" height="40" as="geometry" />
        </mxCell>
      </root>
    </mxGraphModel>
  </diagram>
</mxfile>
